<?xml version="1.0"?><svg width="3200" height="2400" xmlns="http://www.w3.org/2000/svg" xmlns:xlink="http://www.w3.org/1999/xlink">
 <title>ykmangele santa</title>
 <defs>
  <linearGradient id="linearGradient2210">
   <stop stop-color="#ff1010" offset="0" id="stop2212"/>
   <stop stop-color="#000000" offset="1" id="stop2214"/>
  </linearGradient>
  <linearGradient id="linearGradient2200">
   <stop stop-color="#ff1010" id="stop2202" offset="0"/>
   <stop stop-color="#000000" id="stop2204" offset="1"/>
  </linearGradient>
  <linearGradient y2="1.434593" x2="1.208596" y1="0.015339" x1="0.277635" id="linearGradient2047" xlink:href="#linearGradient2200"/>
  <linearGradient y2="1.343243" x2="1.125858" y1="0.090685" x1="-0.001697" id="linearGradient2049" xlink:href="#linearGradient2210"/>
  <linearGradient y2="2.161494" x2="1.507695" y1="0.123661" x1="-0.001724" id="linearGradient2051" xlink:href="#linearGradient2210"/>
 </defs>
 <metadata id="metadata7">image/svg+xml</metadata>
 <g>
  <title>Layer 1</title>
  <g id="layer1">
   <path fill="#d0d0d0" fill-rule="nonzero" stroke-width="10" stroke-miterlimit="4" stroke-dashoffset="0" id="path2248" d="m2367.23584,2025.553711l-19.695068,63.876221l-25.018311,-61.214844l-0.532227,12.775146l-6.387695,-14.904419l-1.064697,48.971802l-26.082764,-39.922729l2.661621,14.904419l-8.516846,-12.242798l11.710938,65.473267l-51.101318,-45.24585l23.953369,51.10083l-51.633057,-30.873291l38.325928,51.633301l-67.602539,-25.550537l48.439209,45.245605l-65.472656,-12.242676l63.876221,40.45459l-52.697754,3.193848l-20.227783,1.064453l-4.258545,0.532715l60.150146,19.162598l-56.423828,12.775635l9.049072,1.596924l-12.24292,2.661377l77.183838,10.645996l-64.940918,33.002686l61.214844,-5.855469l-46.842529,35.664307l51.632813,-14.37207l-38.325439,42.584229l60.149902,-28.744385l-34.067139,56.424316l62.279541,-45.24585l-19.162842,69.731445l2.128906,-2.661377l-1.064453,3.72583l39.922607,-47.374512l-4.258301,57.488525l0,0.532227l0,2.661621l36.72876,-69.199463l14.904297,74.522461l13.839844,-60.682617l23.421631,55.359619l1.064697,-49.503906l27.146973,40.454346l-9.581299,-56.956055l43.648682,44.713379l-26.61499,-68.666992l68.134766,41.519775l-4.790771,-6.920166l3.193604,2.12915l-34.599365,-46.310059l59.617676,21.824219l1.596924,0.532471l-55.359375,-51.633545l78.248291,9.581299l-59.085449,-31.937988l68.134766,-3.726318l-63.343994,-20.759521l58.552979,-13.839844l-57.488525,-8.51709l53.230225,-22.356445l-71.860596,2.129395l58.552979,-43.648682l-18.630371,4.790527l13.307373,-10.11377l-50.036133,14.37207l36.72876,-39.922607l-9.581543,4.790771l4.790771,-5.855225l-63.343994,30.873291l31.937988,-62.811768l-47.906982,39.922607l17.033447,-60.149902l-46.309814,56.424072l5.322754,-68.666992l-28.744385,53.230469l-6.919922,-56.424072z"/>
   <path fill="url(#linearGradient2047)" fill-rule="evenodd" stroke-width="1px" id="path1321" d="m1132.841919,196.727249c-16.002319,-40.436249 -83.422729,75.123489 -116.639648,123.439163c-37.956482,55.209778 -77.456787,108.2117 -119.663391,160.191376c-44.227905,54.468994 -122.566956,79.261536 -159.943237,127.013916c-15.319458,19.572021 -7.11377,59.509949 5.600037,84.600952c25.137878,49.609253 61.728699,91.177856 97.128967,133.698853c33.819397,40.622437 68.013794,80.391174 108.996887,114.163025c54.044861,44.535706 104.116333,93.67865 164.297729,130.46344c71.02356,43.411621 139.494507,90.7948 214.015747,128.388062c53.681152,27.080322 106.804199,54.249512 163.735107,74.337158c98.056396,34.598511 196.409912,71.226318 297.737305,92.803101c66.479248,14.155884 134.699463,25.061035 202.76123,27.14917c27.223389,0.835205 79.014648,25.522949 76.733887,3.326538c-12.740723,-124.008667 -65.599365,-299.705322 -107.911377,-445.522888c-24.800049,-85.465454 -39.938721,-177.957397 -77.535645,-258.820496c-16.699951,-35.916748 -38.334961,-76.515747 -68.294922,-98.699585c-57.509521,-42.583008 -129.556396,-62.079285 -204.898438,-87.339722c-117.821045,-39.502106 -239.480957,-121.858429 -340.568359,-196.23233c-47.293457,-34.795898 -117.423462,-67.150879 -135.55188,-112.959732z"/>
   <path fill="#d0d0d0" fill-rule="nonzero" stroke-width="10" stroke-miterlimit="4" stroke-dashoffset="0" id="path3861" d="m697.936157,468.03714c-7.730835,13.434814 -13.291199,82.574554 -22.648499,54.266144c-10.002563,-31.681122 -17.9151,-49.80365 -23.441345,-51.62616c-3.369873,12.100616 4.599243,75.688904 -15.268677,25.378784c-12.14447,-24.35202 -10.655762,-6.250946 -14.426819,-6.293182c-0.448181,17.946411 22.391602,81.715851 -6.766663,43.170258c0.30542,-21.353119 -20.693237,-13.985229 -28.571472,-26.64032c24.860046,28.02887 -1.441711,58.531372 -6.462891,13.477478c2.539429,-18.243713 -13.990601,23.087341 -17.794678,6.881042c23.308044,27.611023 -13.744446,53.442261 -15.848083,8.400085c-8.3302,-28.664917 -10.113525,-11.485352 -14.507446,-14.840576c3.231445,42.270386 -3.482727,45.770325 -21.245392,6.201233c-5.427826,-0.555969 -11.007019,-0.495544 -2.611969,36.729126c15.667908,49.817261 -16.519104,4.802307 -33.861115,-10.795044c-24.29071,-24.971558 32.696808,64.117493 2.560211,37.299316c-32.824097,-26.206482 -41.152893,-26.770203 -14.008362,9.801819c31.623383,37.884094 -23.918274,0.804382 -41.599487,-3.714478c-18.960144,-5.295593 51.720215,47.041504 28.641144,42.340027c-27.410248,-5.909546 -71.071625,-19.043152 -25.056213,7.686584c41.321014,21.789307 25.139648,27.100647 -13.407562,26.002441c-47.505829,-1.865356 4.05304,11.348999 22.205505,18.989685c11.083801,8.510315 -50.774719,13.745544 -46.212402,20.547852c15.703522,6.792908 83.538788,3.637878 59.097504,18.091125c-39.15683,-23.65155 8.967865,14.257935 -35.942932,20.727844c-31.840363,6.763916 52.710327,13.623291 4.487671,34.616821c2.638916,-6.698914 60.080505,-3.166931 14.945343,13.286194c-49.762329,0.724487 -11.888306,2.035339 -6.391022,19.206116c49.853485,-5.357422 2.465607,13.697266 -23.421295,16.501404c-6.624207,6.509583 35.747864,9.577393 59.963989,14.221497c15.034637,5.576355 -53.081024,30.01123 -47.475128,35.338501c27.914642,-3.102295 70.726593,-12.70874 26.974731,15.478638c-49.149139,35.163513 36.374603,-9.946716 23.085541,8.09906c-22.895294,26.746704 -38.87384,47.641235 2.820984,19.74054c34.922577,-21.116943 11.846893,0.681946 4.589569,21.980652c-28.115936,43.75116 13.356079,1.137085 31.177704,-12.124512c23.060669,18.178955 -26.386658,23.671448 -25.018158,28.211975c45.536591,-17.306396 8.073944,53.618286 28.912933,23.728943c23.3302,-37.680054 38.649414,5.328003 -0.940948,11.942139c-43.950745,18.833313 32.969513,1.487976 27.816193,8.717224c31.542114,-15.668274 -56.365265,44.281311 -18.885803,28.143127c46.161621,-21.857788 24.82373,3.184204 3.173767,28.442749c-6.304016,14.056885 64.842224,-43.630127 45.102051,-13.38855c-13.009888,24.667725 -38.594971,64.797974 -0.651855,26.811279c28.950562,-30.004761 38.277954,-28.477661 23.033813,12.532593c-14.421936,43.406982 -3.538452,32.53125 16.63501,1.495728c23.195435,-42.970947 5.442871,29.328613 9.412659,25.942505c-8.903503,39.085571 15.088196,-16.12854 41.520935,15.005371c-9.379395,11.572021 -44.572693,13.407227 -46.843872,20.658813c15.67688,6.747559 83.597595,3.738403 59.043396,17.999023c-18.257874,11.997314 -72.651672,35.814331 -20.841858,24.892944c50.588806,-13.090088 3.217285,16.594482 -13.166687,32.748657c24.301941,-7.203735 63.613281,-23.960815 26.559753,10.92334c-35.473999,37.0896 18.599426,-1.273315 36.238464,-8.936523c8.249207,1.361084 -42.850037,70.413696 -17.236084,48.355469c15.821228,-8.907593 58.797058,-61.449341 41.20575,-16.667603c-3.256226,19.427124 -23.671936,75.828125 1.63739,33.690552c23.322571,-41.426025 25.367981,-23.942749 20.028748,13.985962c-5.448547,41.560181 16.122925,-23.969116 23.824524,-35.293579c14.166687,-43.212769 13.19635,27.485962 19.487366,43.539429c4.377014,34.920044 10.300659,-35.288452 15.380249,-48.131226c7.90802,15.713745 24.63385,84.202881 21.759094,35.378296c-0.879761,-43.467163 4.211121,-15.039551 19.204041,3.220947c-13.923584,36.866455 47.842041,-12.37146 39.684387,7.92334c-22.881348,26.772095 -38.862915,47.661743 2.690735,19.50354c41.493958,-30.784912 3.94458,19.389648 -4.147522,39.3927c-0.946289,9.641724 37.947937,-30.013672 52.82019,-39.945679c-4.709961,22.880737 -16.818542,62.035767 -16.41925,73.621094c10.762756,-8.512451 41.033081,-71.582153 34.612915,-31.042969c-2.67395,30.137207 -5.207275,61.738892 11.183655,15.987671c12.754761,-32.304199 24.483459,-56.970581 26.242615,-7.41272c9.760925,45.215454 -3.872375,34.48877 28.925049,20.303711c28.40332,14.505371 -33.299622,46.86853 21.255981,23.793457c43.520996,-21.54126 -34.090332,46.223267 -10.577271,35.036011c24.476196,-13.356201 62.865967,-40.909668 32.112793,2.091675c-28.491455,43.82251 -1.88501,19.728516 22.250244,-1.319092c32.911377,-36.598755 5.889404,23.751953 4.695068,42.32312c-12.338623,39.483154 20.889771,-20.084229 31.646973,-30.88269c5.07959,3.14978 -8.513428,71.032959 1.523193,52.620361c10.094238,-12.622314 27.415527,-79.397217 32.005615,-50.776978c4.892944,14.226929 8.878418,87.843384 14.611328,47.092041c4.871094,-30.490967 9.63208,-62.326294 20.903809,-14.710205c0.662354,12.88147 11.078613,35.797119 14.617432,1.11438c47.723389,-3.426392 -33.532593,47.385986 10.688232,27.106323c47.778564,-22.501099 12.081543,12.359497 -3.991211,33.735352c9.306152,0.747314 68.77002,-47.917969 45.349854,-12.895264c-17.245117,30.220337 -30.825684,55.881104 5.268066,19.726685c32.037598,-35.365723 29.493896,-14.877441 18.065674,19.961182c-16.154541,46.993774 3.319092,17.972168 20.562256,-6.421753c19.174072,-31.139282 3.405273,33.172852 6.013916,47.55481c9.19165,-14.72644 22.309326,-47.165283 33.002686,-68.666992c4.777588,20.507324 9.226318,66.779419 14.195801,72.209839c1.21875,-26.474243 15.672607,-70.971558 25.41748,-21.458374c3.271484,30.434937 5.120605,-2.849609 28.129639,1.075684c-5.367676,28.335449 -32.387207,43.588135 12.387451,17.366943c40.83374,-30.310913 1.997559,21.018433 -5.214844,39.941528c1.771729,6.207886 38.598389,-30.987061 53.901611,-41.533203c-5.138916,23.712036 -14.581299,56.546143 -17.033447,74.522217c12.964844,-12.509399 43.664063,-73.884155 34.84375,-26.364868c-6.550293,47.349121 1.918213,35.786377 16.898193,-1.318237c15.072998,-49.198975 18.395264,-11.477905 22.729004,18.762207c4.34375,53.365845 10.142334,-2.417114 15.501709,-25.214722c4.273193,-30.12915 21.487549,64.062256 23.684814,38.920654c0.422852,-36.052734 0.064697,-47.175415 13.219238,-22.185913c20.468262,50.215454 -1.667236,-33.076172 35.020752,-0.239136c-24.0979,22.680664 -38.843018,34.126221 4.606934,16.652466c34.177979,-15.574707 -46.241211,55.212036 -10.866699,33.847046c29.193359,-17.915527 55.863525,-33.274902 26.436035,8.186523c-29.559814,45.017456 6.868652,8.893555 27.38916,-7.669556c30.078369,-31.816772 0.297119,32.552734 0.318359,49.033325c-8.502686,30.399902 23.986572,-27.532837 34.012939,-37.164063c1.731934,12.553833 -10.598389,80.251587 1.985596,51.014282c10.110107,-12.685913 27.800293,-82.415894 30.881592,-42.2052c4.848877,16.623901 8.914307,86.514404 14.727051,37.657471c4.310059,-41.965454 11.57666,-45.281616 22.341797,-2.873779c15.150391,54.479004 0.480957,-45.179199 12.914307,-23.014404c21.054932,43.200928 21.076416,27.393433 13.026611,-11.056885c-9.564453,-37.164917 34.732178,37.591309 36.27002,27.710693c-1.441162,-16.618774 -35.290039,-76.169312 -11.856201,-59.83374c22.915039,7.445801 43.454346,45.936523 58.209229,31.458618c29.188965,-18.164795 55.165283,-33.052002 26.036865,8.291748c-29.412842,44.958252 7.964844,7.587036 27.848145,-8.218994c29.44458,-30.990723 -0.254883,33.69104 0.179932,49.627075c-8.280762,30.175781 24.046387,-27.255127 34.118896,-36.732666c1.790039,11.999512 -10.656494,79.877686 1.979248,49.947021c9.973389,-12.230347 27.338867,-81.912231 30.494385,-41.162476c5.004639,16.483765 9.391846,86.115845 15.15625,37.157104c4.341797,-42.190186 11.613037,-44.284912 22.107178,-2.276123c14.784912,53.422974 0.224365,-47.335815 12.567383,-25.208618c20.892822,42.709473 22.026611,29.839478 13.572266,-9.999634c-9.564697,-37.165283 34.731689,37.591064 36.269775,27.710571c-1.46167,-16.589478 -35.244629,-76.234131 -11.897217,-59.774658c16.410889,9.365112 63.181885,50.313232 45.138672,23.471191c-18.436279,-26.02771 -38.552734,-53.504883 4.312744,-27.869995c45.814697,25.283691 -2.94165,-16.287354 -16.059326,-32.664185c-23.590332,-22.664795 42.024414,1.231934 57.349854,-1.120483c5.629395,-5.587158 -76.130371,-36.960571 -31.618408,-34.041504c41.594238,0.317261 50.558105,-4.297363 6.038086,-16.996094c-50.169434,-10.158569 34.426025,-15.737061 28.893555,-22.034912c-34.19043,-3.606201 -63.39917,-7.952026 -15.675537,-23.715576c39.549805,-15.7146 -32.825439,-3.61438 -46.958984,-5.987549c0.597412,-8.44104 59.803955,-45.636353 42.460205,-43.090332c17.680176,-18.140869 -42.361084,14.210938 -35.197998,-0.119263c19.978027,-23.403442 28.205322,-29.403198 22.583008,-34.953979c-23.358643,13.54126 -56.672852,-33.597656 -10.925781,-23.671631c50.08252,1.744263 -16.525391,-13.592773 -32.169922,-21.469971c0.915527,-7.187012 81.181396,-15.707153 28.195801,-19.190308c-52.432373,-0.822144 -4.304199,-16.709106 18.625488,-28.821167c-15.704834,-3.622681 -84.681396,13.914795 -51.262939,-9.220337c24.137939,-19.597168 40.699219,-34.484375 30.301025,-35.183105c2.105957,-8.109009 -67.384766,28.528931 -23.874512,-10.406372c26.31958,-29.036865 6.348389,-19.673096 -20.249512,-3.48877c-41.313232,32.346558 -13.283447,-11.46936 -3.750244,-34.96936c20.831787,-39.610474 -33.345215,30.683716 -35.478516,21.26709c2.081055,-17.082031 26.490234,-82.330566 1.065186,-40.075439c-18.790283,28.849976 -35.967041,53.242188 -26.314941,3.530029c8.015137,-51.668457 -5.813965,-19.171143 -18.891602,10.429443c-11.512451,31.356445 -5.6604,-65.420654 -13.611816,-39.524902c-7.592041,16.145142 -13.348389,83.888916 -23.202393,36.420288c-10.87085,-38.807861 -15.114746,-33.618408 -21.358398,-40.100952c1.391113,35.253052 0.092773,59.807129 -18.772217,14.479736c-5.759766,-7.978882 -6.714111,1.228027 -9.983887,1.638306c24.717529,36.651855 -48.077393,39.949951 -9.577393,8.07666c19.004639,-21.977173 -12.657471,-1.329956 -27.043945,5.876465c-41.178711,32.828613 -14.911865,-9.728882 -4.724609,-34.314331c20.01416,-37.580566 -24.635742,17.503174 -36.262939,25.265137c0.983154,-14.575317 26.884521,-83.517944 4.931396,-48.050415c-13.912842,16.952148 -40.180664,68.549805 -29.73877,17.207642c5.17334,-41.130371 2.439697,-51.702637 -14.374756,-7.858521c-14.784668,46.516724 -9.118408,-41.90564 -15.760254,-36.238525c-7.720459,13.698364 -13.182617,85.358521 -22.985107,45.625c-10.291992,-34.307373 -16.190186,-41.877686 -22.67749,-48.93335c-0.449463,28.095215 3.134033,72.084351 -16.758057,23.550659c-9.572021,-17.567993 -8.796143,-3.292847 -12.248779,-2.880005c11.743164,31.608765 -54.77417,28.003418 -11.344238,-0.243652c21.686035,-24.844604 -10.792969,-4.877197 -33.687744,8.236206c-36.249756,26.824951 4.205566,-30.854248 7.661621,-47.771973c8.631348,-23.599976 -50.188232,56.979614 -36.813965,20.291504c6.913818,-27.300293 20.552246,-69.06958 -6.439209,-23.417358c-23.17334,40.955078 -26.304443,26.552734 -20.387207,-12.843506c7.962891,-51.467163 -13.393555,10.032227 -23.364258,27.66272c-5.583008,-3.309448 -3.480713,-83.513062 -12.093506,-39.501099c-7.198486,27.135742 -13.812256,70.845215 -23.775391,19.624512c-10.155518,-36.819336 -13.994141,-28.582642 -18.537842,-26.995117c3.164795,42.308594 -3.441895,45.746948 -20.902832,6.005981c-4.59375,2.959473 -11.925537,-3.067383 -3.002197,36.931763c24.122803,49.927368 -32.647217,5.324951 -17.305664,-6.009521c15.616699,-7.427246 -30.102539,-10.004883 -34.459961,-4.041016c-44.064209,7.089844 17.544189,-26.599976 27.795898,-40.471069c-3.603027,-3.967041 -0.437012,-12.81665 -38.02832,2.764526c-12.839844,0.358765 42.958984,-50.449829 18.264893,-37.689819c-17.536621,6.010376 -69.897217,50.233765 -44.885742,9.555664c15.046875,-31.039063 27.999756,-59.107544 -6.160889,-20.328491c-31.510986,38.850952 -5.25708,-21.868408 -3.34082,-40.636475c-2.837891,-7.463501 -34.445801,52.201416 -40.364502,48.404053c-1.422852,-15.466309 11.948242,-88.045776 -3.227539,-50.415649c-14.195313,39.763062 -22.001709,41.062866 -22.337646,-2.61499c-1.943359,-37.68396 -12.84082,30.28418 -18.37207,44.534424c6.657959,2.858032 -28.661377,-29.641602 -3.298096,-40.436523c-21.549316,-9.163452 -18.982178,-7.483276 -25.881104,-17.327026c8.053955,29.092773 -48.50708,13.227905 -4.611328,-9.852173c24.532715,-19.174316 11.705811,-18.186768 2.253418,-18.338257c-46.344727,22.767212 -20.505371,-4.967041 -0.819092,-28.396362c-1.014648,-6.426025 -32.529053,14.138062 -54.175293,25.70813c-14.081299,3.357666 25.883057,-57.005615 19.377441,-59.149597c-16.958252,14.125488 -52.550049,60.598328 -33.36792,11.985962c15.539551,-46.224854 2.737549,-30.962219 -17.470947,0.370361c-24.776245,45.785828 -11.237305,-15.063538 -11.684082,-36.988159c3.13208,-36.104309 -24.092773,59.28717 -26.229492,33.2453c-2.644165,-34.485779 -5.611938,-64.800537 -14.869019,-14.040588c-16.050903,42.173157 -23.802856,-22.287903 -3.569702,-14.559814c-32.018066,-4.352661 -24.096191,-8.529907 -32.489014,-16.18866c4.121094,24.57019 -41.662109,17.47467 2.040527,-7.251099c36.085938,-25.149536 0.047119,-11.052368 14.170776,-24.303345c-38.082153,16.782043 -47.040649,13.265137 -15.577515,-18.424744c16.653442,-21.20752 -20.047363,3.358276 -40.633179,14.192444c-30.662842,20.369385 10.680542,-37.743347 13.422241,-53.782654c-1.792358,-8.622864 -54.032837,63.552979 -37.47998,20.372803c9.87915,-33.985352 15.530273,-58.745789 -9.898682,-15.694946c-23.107422,42.75177 -22.71698,19.560181 -18.049561,-15.633057c8.369263,-52.571594 -11.150085,2.743469 -21.344055,21.983765c-4.998474,7.12793 -5.428589,-39.841003 -8.203918,-46.765259c3.017334,2.122131 -35.845093,2.84137 -46.900818,-4.012268c25.026733,-12.430969 68.614014,-29.518921 15.685181,-22.390808c-50.128601,9.515808 -20,-11.99884 4.1521,-31.202698c22.395996,-16.776978 1.580383,-11.252136 2.432068,-15.965454c-43.013184,20.219421 -34.482056,4.512512 -8.456726,-23.387573c10.848816,-16.611389 -31.937195,13.041199 -50.824707,22.162476c-14.093872,3.344543 25.908325,-56.97937 19.358154,-59.169617c-17.110535,14.028625 -53.074707,60.555786 -33.880859,12.006104c15.539612,-46.22522 2.73761,-30.962341 -17.471313,0.370056c-23.187805,40.041992 -11.826965,-1.56189 -12.435974,-27.208618c9.601318,2.810852 0.964783,-35.750916 -10.112061,-7.935486c-15.5625,-16.739258 -48.693848,-8.351196 -20.792603,-18.980164c48.276917,-7.918152 27.24231,-12.571411 -9.019409,-16.507568c-19.317322,-4.773438 74.975037,-31.748352 17.82074,-24.50769c-40.944641,5.964844 -48.647522,-0.922729 -11.7995,-25.035278c29.939209,-21.887451 10.745178,-16.867554 9.329407,-21.838501c-43.013123,20.219299 -34.482056,4.512512 -8.456787,-23.387573c8.83844,-14.690796 -26.795349,9.182068 -47.404297,19.950317c-21.895447,10.821045 15.937378,-43.457947 19.219727,-60.079407c-14.759155,9.975891 -55.577393,64.869751 -38.243652,19.526672c12.935181,-40.652863 9.457214,-45.495331 -13.606201,-7.60614c-24.306824,46.099182 -17.274353,4.317749 -15.099792,-23.841156c6.831787,-46.968109 -15.019592,17.776489 -24.074036,32.680389c-2.12915,-19.340332 -4.258484,-38.680542 -6.387634,-58.020905zm282.652405,371.546967c7.294739,47.227356 -58.701599,5.281128 -9.041443,2.494263c3.013672,-0.831421 6.027649,-1.662781 9.041443,-2.494263zm-345.46405,243.794434c39.702393,15.701416 -11.756653,49.92981 -11.125366,24.237183c3.708496,-8.078857 7.416992,-16.157959 11.125366,-24.237183zm827.19751,157.029297c24.89624,26.825562 -44.937988,8.910767 -3.402832,1.655396l3.402832,-1.655396zm-602.03363,51.10083c15.473328,36.411377 -48.727478,16.283203 -7.24231,0.74292l4.505981,-0.462158l2.736328,-0.280762zm143.721558,78.248535c28.738831,24.979248 -21.441956,57.149292 -2.514526,12.237061c0.838196,-4.079224 1.676331,-8.157959 2.514526,-12.237061zm1086.961243,177.256592c52.623047,-9.176514 0.983887,33.927002 -4.03125,9.161377c1.34375,-3.053711 2.6875,-6.107788 4.03125,-9.161377zm-263.489502,175.127319c47.848389,3.649414 0.175049,37.249268 41.519531,17.56604c23.001465,10.706665 -20.545166,53.934204 -21.939697,11.894897c-6.438477,-9.878296 -13.070313,-19.629517 -19.579834,-29.460938z"/>
   <path fill="#ffffff" fill-rule="nonzero" stroke-width="10" stroke-miterlimit="4" stroke-dashoffset="0" id="path2310" d="m734.678284,517.167847c-7.725037,13.361816 -13.20752,79.756042 -23.015259,43.861023c-10.354858,-32.473877 -16.858398,-39.981934 -21.798462,-39.116211c2.681824,38.483337 -2.89624,46.103394 -20.68158,8.108398c-3.727173,4.671997 -10.320679,-0.716736 -1.464844,35.686096c14.508484,51.584045 -21.111389,-13.382935 -18.783081,-0.546875c-30.952515,-24.562866 -11.326172,-8.277039 -10.071167,20.142273c-24.466003,-0.867859 -10.169434,-45.102661 -25.929688,-13.411377c-10.005432,-21.926331 8.370728,56.442322 -16.984619,19.373169c-9.50354,-28.657776 -17.24176,-40.995117 -19.133545,-23.133728c4.651367,44.627747 -8.661133,22.130249 -23.120483,-4.652527c0.555664,15.315613 -8.436157,2.833496 1.174438,40.022522c14.793213,45.170593 -19.759583,-1.953247 -35.516541,-13.922668c-15.238983,-11.160522 36.004089,63.832275 1.53418,33.453247c-35.440735,-27.23114 -28.96759,-13.65448 -6.811523,15.191162c22.676208,28.2005 -34.015564,-7.84906 -49.218994,-10.312622c6.421326,11.360168 57.7276,46.949951 30.146545,40.015564c-31.345184,-7.634399 -58.376831,-13.445557 -16.695587,9.782104c41.808624,20.066956 12.12677,20.91449 -18.249176,21.15094c-42.961792,-1.457886 10.418335,11.407532 26.375305,18.146851c-5.855835,6.824829 -56.055481,12.671753 -43.013092,17.942688c14.277405,3.502563 80.21756,7.078857 48.341339,13.27124c-25.946838,-16.827515 5.818909,20.27002 -37.506622,24.25c1.289856,-0.884949 47.880798,15.648071 7.883698,29.480408c24.734253,-19.101929 54.482422,3.873169 14.014832,9.525024c-47.931763,-0.006653 -3.823059,2.854858 -2.304199,17.090149c47.161682,-4.580505 0.557922,11.905457 -22.889008,14.372131c-2.018921,5.454712 24.842651,8.410583 52.087341,12.065613c25.700043,3.579773 -32.817932,22.38269 -44.102783,32.647766c20.71521,-0.458496 74.49118,-14.574463 33.084869,10.628906c-39.70697,26.34082 3.737885,8.922119 24.936035,3.210938c-12.229401,16.284973 -52.575531,54.934692 -11.015411,28.43335c32.84494,-17.876831 25.834442,-12.992676 15.954376,8.642822c-27.621429,39.857666 -3.166077,19.331299 20.392517,-0.155518c39.592102,-3.872864 -23.497253,23.698792 -11.332153,19.947144c5.125732,-9.274536 23.568298,27.106506 15.720581,29.221741c10.138489,-34.657776 51.9552,-15.006653 11.393921,0.101563c-46.095734,21.420471 5.133423,3.98999 16.907227,12.817139c25.303955,-15.582581 -15.916992,17.631409 -28.212036,27.147461c25.04248,-7.555847 62.329102,-23.117188 26.274963,9.276733c-33.727722,33.385498 17.963501,-1.175171 34.227722,-7.555542c7.902588,0.908081 -41.109863,63.655029 -15.946533,42.656738c14.893311,-7.713745 55.780823,-55.282898 38.617676,-13.845337c-5.400208,22.866577 -20.824341,65.927612 4.806763,25.682739c18.350708,-41.213135 26.641174,-5.1698 11.105103,11.910034c6.985657,33.468384 4.035828,-5.812744 32.151855,10.929932c47.041138,9.859863 -44.311401,15.23938 -20.518738,19.953003c-22.236023,5.927979 41.241333,7.965088 55.359375,12.242798c-10.284729,8.531494 -71.71698,32.894409 -43.84613,29.615845c37.677185,-7.386719 46.751343,-2.949707 11.268311,19.906006c-35.58606,25.477661 55.181641,-20.77478 25.980591,5.348755c-27.750732,28.323853 -26.772278,33.950317 8.438416,12.531128c36.482361,-24.402466 -4.895264,26.027954 -10.48407,42.061035c13.582581,-7.276978 44.342651,-39.215942 52.318604,-37.244141c-1.394287,14.741333 -22.82605,70.022827 -9.735596,55.286865c16.010681,-20.639526 37.522522,-55.583984 27.344299,-8.123413c-7.883545,47.097168 8.601196,5.986694 18.92395,-14.522949c14.533691,-46.076172 15.256775,6.645264 20.527161,26.837402c4.367554,42.996094 10.518433,-21.810791 15.838684,-36.414307c8.550232,18.683228 23.442078,75.056152 20.566589,25.834961c-0.534668,-36.686646 8.209106,0.449585 23.081543,15.355835c-21.80481,20.406372 58.707764,-22.783081 30.664551,3.033691c-27.750732,28.323975 -26.772278,33.950317 8.438416,12.531128c36.482239,-24.402466 -4.895264,26.027832 -10.484131,42.060913c13.582581,-7.276855 44.342773,-39.215942 52.318665,-37.244019c-1.394226,14.741211 -22.82605,70.022827 -9.735596,55.286865c16.010681,-20.639526 37.522522,-55.584106 27.344238,-8.123535c-7.883362,47.097168 8.601318,5.986694 18.924011,-14.522827c14.533691,-46.076416 15.256897,6.645142 20.5271,26.837402c-5.096069,42.124878 21.426331,-28.125244 34.748596,12.112549c-34.607971,28.19397 1.086914,10.946167 25.513062,4.789673c-7.93335,12.692749 -52.603699,54.319336 -14.478394,30.261597c36.247803,-24.123779 33.783447,-11.203735 12.616577,19.612671c-22.158081,33.267944 26.100464,-15.154663 37.970337,-21.363037c15.516846,-8.654541 -8.875854,44.012817 -9.177368,59.663208c5.986328,-0.032349 35.167847,-53.353149 35.05603,-35.140259c-0.828857,20.764526 -9.027466,70.262695 8.086548,25.366821c12.493774,-29.380859 24.356934,-54.097534 26.589233,-7.601807c4.760986,44.45752 10.174561,30.241455 15.828857,-5.602173c7.200439,-31.636475 10.316162,21.747803 19.082031,26.337402c-3.552734,19.364136 19.973877,-40.713257 22.478027,-0.066528c-45.412354,30.19873 17.819092,0.483521 21.85376,5.893066c-16.913574,19.990112 -45.540283,49.34668 -4.07666,22.653198c39.445557,-27.859741 17.05957,3.741211 3.658203,26.701538c-16.894043,27.317017 30.910889,-20.39856 42.846436,-26.515503c6.036865,4.45813 -12.588379,49.933105 -11.509766,60.163818c6.387451,2.078491 41.145752,-65.526855 33.445557,-25.237305c-4.381592,34.010132 -3.413574,50.384277 12.401123,9.941772c14.134521,-41.111572 20.794434,-28.191772 24.19751,8.269409c6.623779,51.779663 5.70166,-4.980347 18.792725,-18.315308c11.625732,10.23291 14.548584,52.110107 19.095703,28.144165c43.580566,-30.681396 -9.984375,39.863281 11.384521,20.197021c27.645752,-15.90979 52.63501,-29.266113 24.408447,8.524414c-28.329346,40.748535 9.748047,4.010742 27.005615,-8.43335c28.805908,-28.894775 -0.091064,30.262939 -0.342529,45.708618c-6.425781,23.603149 24.073242,-26.957642 33.483154,-35.264526c1.36792,12.960205 -11.165283,77.547241 3.76001,41.324219c10.911865,-17.844238 26.805176,-71.511353 28.543701,-23.389404c4.674805,32.197632 9.449951,57.6604 15.298584,10.870972c3.822266,-47.517212 16.070557,10.267212 25.075439,27.519165c0.418457,-21.467896 1.257813,-56.5271 9.230957,-30.661377c16.14624,28.170776 9.820313,30.013672 44.845459,16.474121c26.700439,-10.461548 -46.206787,50.78479 -13.316895,31.916138c27.661377,-16.150635 51.941406,-29.037842 23.900391,8.571533c-28.329346,40.748169 9.748291,4.01062 27.006104,-8.433472c28.745361,-28.9104 0.198486,30.33728 0.093506,45.820313c-6.222168,23.4104 23.747559,-26.664185 33.046875,-34.84375c1.338135,12.890259 -11.145752,77.045776 3.760254,40.791626c10.93457,-17.848511 26.709961,-71.493408 28.729248,-23.424561c4.891846,32.12439 9.862549,57.73645 15.710205,10.920166c3.930176,-47.157837 15.925293,11.437378 24.725586,28.136841c-0.806396,-31.778687 -0.855225,-60.832153 19.109619,-17.838989c17.46875,28.616455 -16.053711,-64.286133 5.960449,-33.550659c21.249023,25.197876 37.361816,41.983032 17.620361,0.046875c-21.021973,-39.276245 -3.048096,-29.691162 23.541016,-9.311646c22.088135,25.324585 33.167969,9.924927 60.754395,-3.526367c26.417236,-15.978638 -23.676758,44.733887 -15.077393,44.018921c13.343018,-5.336548 55.081299,-54.210449 47.330811,-27.204834c-1.655518,15.275269 -24.962158,74.342407 -2.4646,40.485107c20.771973,-33.020142 28.897217,-33.155273 21.559814,6.916992c-6.106689,41.256348 15.26709,-18.880371 23.256104,-30.478638c13.229736,-36.744873 12.031494,29.722046 18.313232,42.674072c5.446045,31.971313 9.266113,-59.383423 17.3396,-36.837769c10.526611,30.240601 20.561768,57.65979 17.439453,9.538208c-2.946289,-35.439819 35.053711,59.436401 20.848633,4.390137c-13.983643,-45.793457 7.187012,-19.431641 26.297363,2.700562c12.995605,11.621338 -13.600586,-42.140503 -16.367432,-56.55127c15.569336,8.32019 49.484375,35.279175 56.007568,34.9823c8.123291,-1.064697 -45.626221,-54.031616 -17.236328,-40.369263c24.706543,10.70459 56.567627,26.278442 20.719727,-3.753784c-33.936279,-26.452271 -21.477295,-30.024414 15.169189,-21.668213c48.338379,10.989258 -0.08667,-10.809204 -17.877197,-22.226929c-18.593506,-11.006836 53.549316,-2.381592 47.681641,-8.916138c-19.008301,-8.450317 -74.501953,-18.474976 -26.354492,-24.026733c49.088135,-7.582153 -3.22998,-9.981812 -24.468994,-13.969604c13.597412,-8.096558 69.817627,-26.268555 25.229004,-20.575928c-37.71167,5.105591 -47.658203,-0.084595 -11.642578,-22.317749c28.945068,-19.860352 9.544678,-14.893066 8.685303,-19.537109c-37.814453,19.873047 -35.917969,0.173218 -6.948486,-16.290039c4.636475,-14.59729 -3.042969,-0.317627 -26.677979,-16.978882c-34.664063,-21.871826 52.221436,-10.228271 29.448242,-18.311768c-24.420898,-8.655273 -67.757568,-18.145752 -18.782227,-23.559692c52.28833,-8.06189 -24.113281,-7.959351 -23.196289,-14.850952c29.483398,-12.514526 56.046875,-24.3302 8.269043,-18.353516c-47.966553,9.042603 -7.01123,-15.161621 11.221191,-30.869873c20.568359,-14.408813 -10.832764,-1.684937 2.476074,-12.683838c-35.67334,14.881348 -44.384521,11.977051 -13.91748,-16.770996c15.107178,-17.817993 -20.142578,3.984619 -38.546875,13.081787c-29.067627,18.251343 10.437988,-34.961426 13.233887,-49.916626c-8.274902,0.948364 -51.705566,56.690552 -37.079346,19.55249c12.174072,-36.639526 11.195068,-46.445679 -12.447021,-10.014038c-24.259033,42.734619 -14.100098,-4.77417 -13.062256,-28.367554c4.396729,-35.096436 -20.349365,41.298218 -24.510986,31.859009c-2.878174,-25.926392 -4.378174,-68.36438 -13.487793,-19.618652c-6.269531,46.984863 -15.933105,16.54187 -25.515137,-12.022217c-8.089844,-17.610474 -13.009766,-16.211426 -11.888428,17.893555c0.864502,28.238647 -27.937744,-46.173462 -22.76123,-14.896851c-7.456299,-18.889771 7.403809,53.013916 -26.482422,22.717773c23.91333,-25.011108 24.077148,-31.835205 -5.23877,-14.121826c-27.868164,17.857788 -40.553955,20.660522 -18.5625,-13.103027c24.934326,-41.824829 0.594971,-17.804932 -20.807373,2.289795c-18.91748,18.741577 18.092773,-60.652954 2.758301,-42.895142c-12.409668,11.543091 -41.873535,68.408813 -33.399414,24.452515c3.696777,-32.788818 4.702148,-55.75 -12.350098,-12.772217c-15.14209,46.432495 -10.148926,-32.309204 -16.301514,-28.695923c-7.648926,15.373169 -13.253906,78.671875 -23.404785,35.364014c-10.126465,-31.084839 -17.023926,-39.703613 -20.337646,-30.455566c3.915527,43.4823 -6.111084,34.69165 -22.696045,1.312378c-0.94165,16.448486 -4.826416,-4.486328 -6.680176,24.522217c-45.872559,22.680542 -2.688477,-23.139771 -2.889648,-25.889038c-3.96167,-3.344238 -37.759277,18.244995 -55.900146,26.761353c3.733398,-13.501465 38.916016,-68.996216 18.798096,-50.649658c-22.909668,23.525146 -40.049561,37.577515 -23.103027,-4.333374c16.298584,-45.235596 -14.98291,7.124634 -27.388184,20.765991c-14.19165,17.20813 -0.083252,-40.791626 -2.374268,-55.209595c-10.903809,17.741089 -28.305908,71.816772 -27.364014,23.322754c-0.916992,-49.636108 -10.198486,2.370361 -16.86792,22.632568c-6.284424,27.637329 -19.595215,-48.639771 -25.150391,-42.278076c-9.710205,-19.927856 -1.355713,40.63208 -11.102539,32.763306c-16.302002,-31.561646 -19.701416,-26.047119 -22.461182,-19.61145c-0.365967,15.521973 19.801758,69.118164 -4.225098,40.099609c-29.116943,-23.144165 20.147461,-21.420532 -26.222168,-24.776245c-2.670898,2.720459 -54.614502,10.51062 -10.303955,-14.527832c26.183838,-18.070557 22.165283,-20.615601 18.768555,-23.459106c3.67334,-7.903198 -64.185303,25.651978 -22.05835,-9.653809c25.426025,-25.930908 4.80127,-16.501221 -19.13623,-2.92749c-39.329346,28.945923 -13.093018,-10.438354 -3.36377,-32.619141c18.117676,-33.285156 -32.88916,29.671509 -33.858154,19.80896c4.002197,-20.045898 24.122314,-72.945679 -2.150635,-31.280762c-20.549561,32.827271 -29.28125,34.535889 -21.893555,-6.201782c7.876221,-48.499268 -12.862793,6.395386 -23.226563,23.802246c-3.622803,-14.937134 -3.272949,-75.819702 -11.710938,-31.707031c-8.92627,29.970947 -10.265137,43.238281 -16.599609,24.97998c-9.280762,-34.803955 6.643311,-15.746826 -15.968994,-42.584106c-3.061279,17.651855 -4.250977,-9.460083 -11.131104,16.637085c-45.092773,0.490601 21.321533,-36.035767 16.650879,-38.93811c-4.100342,-3.722656 -12.31958,-4.000122 -43.845459,7.396484c13.954834,-17.072754 42.625977,-45.297241 20.200684,-33.910156c-19.349365,7.956543 -63.956299,41.937378 -36.906738,2.085815c19.449707,-34.253967 17.946045,-40.609863 -10.984619,-10.44989c-26.818115,29.962952 1.138184,-29.413574 1.60791,-43.958862c-11.540771,9.105164 -41.320068,66.237366 -39.067627,39.021912c1.597412,-25.812195 8.421875,-70.51178 -10.014893,-23.934631c-15.80127,45.992126 -13.534912,-7.157715 -17.23999,-27.540283c-4.489624,6.065796 -12.826904,68.246643 -27.937622,30.049622c36.038696,-18.495178 -10.112183,-10.210938 -11.318848,-25.629883c-4.875732,4.944458 -2.720703,-7.579895 -10.415649,12.964417c-35.166382,-0.838623 21.25061,-28.52063 30.293945,-40.063049c-18.565918,4.612244 -3.077148,-9.128723 -41.025635,6.392944c-11.765503,-0.335999 35.397095,-40.299561 20.265869,-35.669617c-15.183838,3.804993 -67.030029,45.806824 -48.09729,14.067261c11.227051,-23.507446 32.675659,-60.674377 -1.001221,-24.176331c-31.475952,37.351013 -10.997192,-10.037781 -6.540527,-31.293579c0.568726,-13.747681 -32.69519,46.178589 -37.765991,40.924622c-1.609131,-13.413086 11.48877,-80.531433 -3.625244,-44.630493c-14.816956,28.161438 -16.33075,39.894714 -19.850159,9.121155c4.189697,-36.642456 -6.716003,-14.520813 -38.34259,-23.901794c-26.181763,-2.598755 67.206787,-27.273193 19.675171,-22.041626c-31.799683,2.913269 -59.260071,4.21759 -19.140015,-19.537415c30.841125,-21.190735 14.884033,-18.245728 11.971924,-22.17395c-40.355225,17.969543 -32.536133,4.161255 -7.157715,-21.22998c6.805359,-11.882629 -25.216187,7.740845 -45.016724,17.70813c-20.928406,10.174133 14.572998,-38.460022 17.633789,-53.286316c-14.15741,8.792297 -53.646545,58.609619 -36.623718,16.904785c14.903137,-41.944336 4.623413,-32.663391 -16.13147,-2.074646c-21.686218,35.331543 -10.48114,-2.761658 -11.121216,-24.94397c10.387146,-4.65271 0.940125,-22.173523 -13.791321,-8.157227c-12.408508,-15.674622 -45.69397,-5.355469 -12.093018,-16.69812c48.246033,-7.35907 12.518799,-10.969727 -15.626709,-14.918701c-8.935303,-4.636902 69.550659,-25.842102 25.199097,-20.86969c-31.670715,2.79718 -60.058167,4.377502 -19.672546,-19.532471c28.502747,-20.015747 19.961731,-21.956177 8.456604,-21.001038c-43.478821,19.600037 -22.429565,-2.989136 -1.394104,-25.569397c-1.135681,-5.165161 -31.153564,12.768127 -50.996704,22.831299c-13.8479,3.843994 24.923279,-51.31842 18.231628,-52.426453c-16.370605,12.595398 -51.130127,55.286743 -32.461426,10.53418c16.489319,-45.482361 -1.515503,-20.454285 -19.664368,4.868591c-21.256409,35.374634 -5.011963,-28.972351 -7.287964,-44.070801c-4.549316,-6.720032 -27.559204,71.583984 -26.629883,28.265564c-1.325012,-11.805542 -2.65033,-23.611328 -3.975342,-35.41687zm-107.525085,83.039185c5.609924,5.179871 -2.311768,10.104431 0,0zm250.714294,109.654358c-9.712036,47.847961 -35.401794,-9.498169 0,0zm-27.679749,1.596741c-0.452332,17.395996 -28.469666,-8.634094 0,0zm-14.37207,23.421326c14.158264,-4.087952 2.216309,27.748291 0,0zm-333.75351,34.59967c-25.030273,17.758667 -52.723938,-2.019287 0,0zm11.710663,38.325745c5.906494,1.788391 -5.906342,1.788391 0,0zm490.782715,40.454956c5.184143,42.726257 -55.292175,3.88562 -8.860107,2.25531c2.953308,-0.75177 5.906494,-1.503601 8.860107,-2.25531zm-9.049194,31.405945c1.312134,36.375061 -22.198914,-4.940369 0,0zm-34.599609,1.596863c2.343445,-1.457764 0.818909,4.814636 0,0zm-19.162964,21.292053c2.946899,-2.193787 1.661499,5.296265 0,0zm158.626099,64.408569c4.227783,6.501526 -5.299194,1.678345 0,0zm21.824463,18.630615c4.390259,10.222656 -12.901978,1.444336 0,0zm30.873413,13.307434c0.777344,21.019165 -13.142456,-1.075928 0,0zm-471.087463,52.698059c5.578552,12.059937 -9.37439,8.670776 0,0zm-6.919922,13.839966c37.775818,14.899536 -12.770691,45.724976 -11.081177,21.766602c3.693787,-7.255493 7.387451,-14.511108 11.081177,-21.766602zm593.517029,7.984375c8.692383,9.284424 -9.837402,15.658081 0,0zm-4.790771,3.726196c4.821533,9.904053 -15.251709,5.819702 0,0zm-561.046509,7.452148c25.202576,9.568604 -8.05072,13.027344 0,0zm588.726196,9.049316c6.711426,21.913574 -16.960938,2.128174 0,0zm-595.113831,19.16272c3.138611,-0.092651 -1.403625,2.446655 0,0zm767.047668,92.620728c20.116211,25.930054 -45.265625,5.312622 0,0zm-576.483459,14.904297c48.481018,-4.890015 0.823792,28 0,0zm-21.292053,4.790894c29.181152,18.61792 -2.456665,33.156494 0,0zm607.356812,2.12915c16.360107,18.325073 -17.6875,-2.727051 0,0zm-22.888916,5.855225c18.759033,14.925537 -22.032959,-1.953857 0,0zm-542.948364,15.968994c-9.090271,12.821777 -15.96637,-2.450684 0,0zm-17.565918,1.597046c15.975037,33.224609 -45.89325,14.846436 -6.599609,0.733398l4.187622,-0.465454l2.411987,-0.267944zm801.647095,0c1.768799,4.472534 -10.283691,2.978271 0,0zm-33.535156,3.726074c5.520752,3.770508 -9.825928,4.88269 0,0zm34.599854,3.19397c24.560791,50.882324 -32.044678,10.637329 0,0zm-24.486084,19.694946c21.32959,25.985718 -19.973145,4.26123 0,0zm222.502197,28.212158c0.893066,7.40686 -10.431885,4.636475 0,0zm-32.470215,2.661377c7.187012,6.961426 -12.76709,7.28833 0,0zm33.534912,4.790771c17.472412,36.807251 -22.746094,7.396973 0,0zm-864.990967,7.984619c29.432251,18.50769 -19.924561,53.419067 -3.016296,14.004272c1.00531,-4.667969 2.010803,-9.33606 3.016296,-14.004272zm21.824463,3.193726c17.758301,14.391357 -8.651855,24.719482 0,0zm17.565918,2.661499c11.15625,-2.965332 -1.663086,7.033203 0,0zm802.71167,4.790771c9.250977,10.211792 -8.705078,3.687012 0,0zm-17.033691,13.839844c2.857422,2.296387 -5.270508,1.084839 0,0zm-785.145752,7.452271c-23.302124,31.083618 -31.717651,-3.005249 0,0zm157.561523,64.408569c28.306885,8.462769 -3.897705,30.505493 0,0zm24.48584,3.726074c3.612061,-1.421875 0.370361,1.730103 0,0zm-39.922607,6.919922c17.163086,15.81958 -8.50708,26.007446 0,0zm37.26123,19.162842c-17.534912,24.174805 -28.149658,-3.604492 0,0zm821.342285,7.452393c-4.932617,7.550049 -12.200928,-3.455444 0,0zm-4.258789,24.485718c53.86792,-9.432617 -8.962646,33.794189 -2.086426,4.173462l1.884277,-3.768799l0.202148,-0.404663zm-697.315674,36.72876c9.733154,11.558472 -9.060059,17.071899 0,0zm49.50415,6.387817c-12.393799,16.513794 -16.874512,-2.592529 0,0zm-28.211914,2.661499c21.658203,9.441772 -9.214355,40.447021 0,0zm33.002686,16.501343c-11.816406,22.539917 -20.362061,0.794922 0,0zm172.46582,36.728638c48.480957,-4.890137 0.823975,28.000244 0,0zm-21.291992,3.726074c28.916992,19.306519 -2.501709,33.782715 0,0zm279.458496,15.436768c27.681641,-1.610229 19.371826,14.487915 0,0zm-237.938965,9.581543c-9.090088,12.821899 -15.966309,-2.450684 0,0zm-17.033691,1.596924c14.341553,33.077148 -46.007324,14.63501 -7.127686,0.77063l4.188965,-0.452881l2.938721,-0.317749zm220.905518,0c53.15625,-3.734497 19.056641,26.506226 0,0zm50.568359,17.033813c-23.571289,29.632935 -47.428955,-4.939941 0,0zm-55.891357,9.581421c45.270996,3.97522 0.455322,33.170532 40.82959,16.013794c21.191895,7.048584 -20.809814,47.86084 -20.005371,13.192749c-6.693359,-9.909302 -13.89209,-19.464844 -20.824219,-29.206543zm60.682373,10.113647c-10.208984,18.858276 -22.937256,1.205444 0,0z"/>
   <path fill="url(#linearGradient2049)" fill-rule="evenodd" stroke-width="1px" id="path1323" d="m1103.053955,209.86557c-7.662842,-46.883987 170.998047,-116.262085 250.467285,-149.839371c57.568115,-24.323433 118.172363,-51.600616 179.675293,-54.793734c127.500732,-6.61972 258.760742,-5.373561 383.697266,31.643126c108.530518,32.155956 229.395264,34.429661 330.938477,82.273602c74.968994,35.32299 140.04834,90.155952 194.590332,154.844643c55.675293,66.033081 109.313477,135.287201 147.486572,212.200562c26.16626,52.721008 53.315918,105.09491 56.336426,166.574768c8.976563,182.715637 24.558105,365.559265 23.106201,549.023926c-0.820313,103.652588 20.977539,213.322144 -10.717529,312.462524c-60.70459,189.88147 -169.029053,361.436401 -237.64209,549.053467c-23.672363,64.730225 -9.490967,166.439453 -66.866699,194.337646c-34.318848,16.687012 -50.700928,-51.570557 -71.498047,-79.334473c-54.685791,-73.004395 -62.090088,-167.019165 -94.970703,-250.332275c-59.171631,-149.928711 -72.763428,-312.383179 -105.65625,-469.145752c-42.818359,-204.068726 -113.684814,-409.699463 -178.382568,-608.013428c-28.353516,-86.909851 -46.740723,-191.454651 -106.692871,-252.857483c-58.158447,-59.566345 -164.663818,-67.285828 -244.823486,-104.12915c-70.64624,-32.471191 -145.481934,-64.078735 -206.068359,-111.342102c-80.790527,-63.024567 -233.713135,-115.931854 -242.979248,-172.626495z"/>
   <path fill="#ffffff" fill-rule="nonzero" stroke-width="10" stroke-miterlimit="4" stroke-dashoffset="0" id="path2220" d="m2364.803955,2022.180664l-17.033691,59.618164l-21.824463,-56.956421l-0.532227,11.710693l-5.322998,-13.839844l-1.064453,45.245239l-22.356689,-36.728516l2.12915,13.839844l-7.452393,-11.710693l10.64624,61.215088l-44.713379,-42.052002l20.759521,47.375l-44.713379,-28.744629l33.00293,47.907471l-58.553223,-23.421387l43.116455,42.583984l-57.488525,-11.710693l54.826904,37.26123l-43.648682,2.661377l-18.630615,1.064941l-4.258301,0.531982l52.165527,17.566162l-48.97168,11.710449l8.516846,1.596924l-11.178467,2.661865l66.537598,9.581055l-56.423828,30.873779l52.697754,-5.323242l-39.922363,33.002686l45.245361,-13.307373l-33.534912,39.390381l52.165527,-26.615234l-29.276611,52.165771l53.762695,-42.052002l-16.501465,64.940918l1.064453,-1.59668l-0.532227,2.661377l34.599609,-44.180908l-3.72583,53.762451l0,0.531982l0,2.129639l31.937988,-63.876465l12.774902,68.666748l12.243164,-55.891357l19.695313,51.101074l1.064453,-45.77832l23.953613,37.793457l-8.516602,-52.697754l37.793213,40.987061l-22.888916,-63.876221l58.553223,38.85791l-4.258545,-6.387207l3.194092,2.128906l-30.874023,-44.180908l20.76001,7.984375l33.002686,13.839844l-47.374756,-47.906982l67.602539,8.516602l-51.101074,-29.808594l59.085449,-3.193848l-55.359375,-19.163086l50.568604,-12.775391l-49.50415,-7.451904l45.778076,-21.292236l-61.74707,2.129395l50.568848,-40.987549l-15.969238,4.791016l11.178223,-9.581543l-42.584229,13.307617l31.406006,-36.729004l-8.516846,4.258789l4.258545,-5.323242l-54.827148,28.744385l27.679443,-58.020996l-42.051514,37.260986l14.904297,-56.42395l-39.922607,52.165649l4.790771,-63.343994l-25.018311,48.97168l-5.855225,-52.165771z"/>
   <path fill="url(#linearGradient2051)" fill-rule="evenodd" stroke-width="1px" d="m1103.053955,209.86557c-7.662842,-46.883987 170.998047,-116.262085 250.467285,-149.839371c57.568115,-24.323433 118.172363,-51.600616 179.675293,-54.793734c127.500732,-6.61972 258.760742,-5.373561 383.697266,31.643126c108.530518,32.155956 229.395264,34.429661 330.938477,82.273602c74.968994,35.32299 140.04834,90.155952 194.590332,154.844643c55.675293,66.033081 109.313477,135.287201 147.486572,212.200562c26.16626,52.721008 77.628906,108.820618 56.336426,166.574768c-57.551025,156.104492 -108.065186,186.817749 -166.371826,259.347046c-124.900635,155.369995 -142.685547,361.436279 -211.29834,549.053589c-23.672119,64.72998 -9.490723,166.439209 -66.866699,194.337402c-34.318848,16.68689 -50.700439,-51.570313 -71.497803,-79.334473c-54.685303,-73.00415 -22.173096,-193.630371 -55.054199,-276.943115c-59.171875,-149.929077 -112.412354,-272.466553 -171.91626,-442.534668c-68.861328,-196.813721 91.686035,219.051147 26.988281,20.736816c-28.352783,-86.909668 -73.351563,-218.065613 -133.303711,-279.468445c-58.158447,-59.566345 -164.663818,-67.285828 -244.823486,-104.12915c-70.64624,-32.471191 -145.481934,-64.078735 -206.068359,-111.342102c-80.790527,-63.024567 -233.713135,-115.931854 -242.979248,-172.626495z" id="path4547"/>
  </g>
 </g>
</svg>